  0
SECTION
  2
ENTITIES
   0
POLYLINE
   8
0
   66
1
   10
0.000000
   20
0.000000
   30
0.000000
   70
1
   0
VERTEX
   8
0
   10
15.322700
   20
8.631190
   30
0.000000
   0
VERTEX
   8
0
   10
19.079300
   20
15.449300
   30
0.000000
   0
VERTEX
   8
0
   10
13.924100
   20
17.090200
   30
0.000000
   0
SEQEND
   8
0
   0
POLYLINE
   8
0
   66
1
   10
0.000000
   20
0.000000
   30
0.000000
   70
1
   0
VERTEX
   8
0
   10
24.696700
   20
22.175600
   30
0.000000
   0
VERTEX
   8
0
   10
31.250000
   20
25.839600
   30
0.000000
   0
VERTEX
   8
0
   10
25.000000
   20
30.000000
   30
0.000000
   0
SEQEND
   8
0
   0
POLYLINE
   8
0
   66
1
   10
0.000000
   20
0.000000
   30
0.000000
   70
1
   0
VERTEX
   8
0
   10
46.178300
   20
11.250000
   30
0.000000
   0
VERTEX
   8
0
   10
50.000000
   20
7.500000
   30
0.000000
   0
VERTEX
   8
0
   10
50.000000
   20
15.000000
   30
0.000000
   0
SEQEND
   8
0
   0
POLYLINE
   8
0
   66
1
   10
0.000000
   20
0.000000
   30
0.000000
   70
1
   0
VERTEX
   8
0
   10
27.831200
   20
15.000000
   30
0.000000
   0
VERTEX
   8
0
   10
32.651300
   20
19.438700
   30
0.000000
   0
VERTEX
   8
0
   10
24.696700
   20
22.175600
   30
0.000000
   0
SEQEND
   8
0
   0
POLYLINE
   8
0
   66
1
   10
0.000000
   20
0.000000
   30
0.000000
   70
1
   0
VERTEX
   8
0
   10
19.246300
   20
21.018600
   30
0.000000
   0
VERTEX
   8
0
   10
19.079300
   20
15.449300
   30
0.000000
   0
VERTEX
   8
0
   10
23.567400
   20
17.409900
   30
0.000000
   0
SEQEND
   8
0
   0
POLYLINE
   8
0
   66
1
   10
0.000000
   20
0.000000
   30
0.000000
   70
1
   0
VERTEX
   8
0
   10
18.750000
   20
27.269800
   30
0.000000
   0
VERTEX
   8
0
   10
24.696700
   20
22.175600
   30
0.000000
   0
VERTEX
   8
0
   10
25.000000
   20
30.000000
   30
0.000000
   0
SEQEND
   8
0
   0
POLYLINE
   8
0
   66
1
   10
0.000000
   20
0.000000
   30
0.000000
   70
1
   0
VERTEX
   8
0
   10
12.500000
   20
30.000000
   30
0.000000
   0
VERTEX
   8
0
   10
8.500000
   20
24.661500
   30
0.000000
   0
VERTEX
   8
0
   10
13.875000
   20
22.500000
   30
0.000000
   0
SEQEND
   8
0
   0
POLYLINE
   8
0
   66
1
   10
0.000000
   20
0.000000
   30
0.000000
   70
1
   0
VERTEX
   8
0
   10
3.125000
   20
22.500000
   30
0.000000
   0
VERTEX
   8
0
   10
6.250000
   20
30.000000
   30
0.000000
   0
VERTEX
   8
0
   10
0.000000
   20
30.000000
   30
0.000000
   0
SEQEND
   8
0
   0
POLYLINE
   8
0
   66
1
   10
0.000000
   20
0.000000
   30
0.000000
   70
1
   0
VERTEX
   8
0
   10
40.945100
   20
17.810100
   30
0.000000
   0
VERTEX
   8
0
   10
38.922500
   20
12.955800
   30
0.000000
   0
VERTEX
   8
0
   10
46.178300
   20
11.250000
   30
0.000000
   0
SEQEND
   8
0
   0
POLYLINE
   8
0
   66
1
   10
0.000000
   20
0.000000
   30
0.000000
   70
1
   0
VERTEX
   8
0
   10
25.000000
   20
30.000000
   30
0.000000
   0
VERTEX
   8
0
   10
12.500000
   20
30.000000
   30
0.000000
   0
VERTEX
   8
0
   10
18.750000
   20
27.269800
   30
0.000000
   0
SEQEND
   8
0
   0
POLYLINE
   8
0
   66
1
   10
0.000000
   20
0.000000
   30
0.000000
   70
1
   0
VERTEX
   8
0
   10
19.246300
   20
21.018600
   30
0.000000
   0
VERTEX
   8
0
   10
18.750000
   20
27.269800
   30
0.000000
   0
VERTEX
   8
0
   10
13.875000
   20
22.500000
   30
0.000000
   0
SEQEND
   8
0
   0
POLYLINE
   8
0
   66
1
   10
0.000000
   20
0.000000
   30
0.000000
   70
1
   0
VERTEX
   8
0
   10
25.000000
   20
30.000000
   30
0.000000
   0
VERTEX
   8
0
   10
31.250000
   20
25.839600
   30
0.000000
   0
VERTEX
   8
0
   10
37.500000
   20
30.000000
   30
0.000000
   0
SEQEND
   8
0
   0
POLYLINE
   8
0
   66
1
   10
0.000000
   20
0.000000
   30
0.000000
   70
1
   0
VERTEX
   8
0
   10
12.500000
   20
30.000000
   30
0.000000
   0
VERTEX
   8
0
   10
13.875000
   20
22.500000
   30
0.000000
   0
VERTEX
   8
0
   10
18.750000
   20
27.269800
   30
0.000000
   0
SEQEND
   8
0
   0
POLYLINE
   8
0
   66
1
   10
0.000000
   20
0.000000
   30
0.000000
   70
1
   0
VERTEX
   8
0
   10
19.246300
   20
21.018600
   30
0.000000
   0
VERTEX
   8
0
   10
13.924100
   20
17.090200
   30
0.000000
   0
VERTEX
   8
0
   10
19.079300
   20
15.449300
   30
0.000000
   0
SEQEND
   8
0
   0
POLYLINE
   8
0
   66
1
   10
0.000000
   20
0.000000
   30
0.000000
   70
1
   0
VERTEX
   8
0
   10
5.117640
   20
17.268700
   30
0.000000
   0
VERTEX
   8
0
   10
3.125000
   20
22.500000
   30
0.000000
   0
VERTEX
   8
0
   10
0.000000
   20
15.000000
   30
0.000000
   0
SEQEND
   8
0
   0
POLYLINE
   8
0
   66
1
   10
0.000000
   20
0.000000
   30
0.000000
   70
1
   0
VERTEX
   8
0
   10
36.240100
   20
25.118000
   30
0.000000
   0
VERTEX
   8
0
   10
32.651300
   20
19.438700
   30
0.000000
   0
VERTEX
   8
0
   10
40.945100
   20
17.810100
   30
0.000000
   0
SEQEND
   8
0
   0
POLYLINE
   8
0
   66
1
   10
0.000000
   20
0.000000
   30
0.000000
   70
1
   0
VERTEX
   8
0
   10
23.567400
   20
17.409900
   30
0.000000
   0
VERTEX
   8
0
   10
27.831200
   20
15.000000
   30
0.000000
   0
VERTEX
   8
0
   10
24.696700
   20
22.175600
   30
0.000000
   0
SEQEND
   8
0
   0
POLYLINE
   8
0
   66
1
   10
0.000000
   20
0.000000
   30
0.000000
   70
1
   0
VERTEX
   8
0
   10
12.500000
   20
30.000000
   30
0.000000
   0
VERTEX
   8
0
   10
6.250000
   20
30.000000
   30
0.000000
   0
VERTEX
   8
0
   10
8.500000
   20
24.661500
   30
0.000000
   0
SEQEND
   8
0
   0
POLYLINE
   8
0
   66
1
   10
0.000000
   20
0.000000
   30
0.000000
   70
1
   0
VERTEX
   8
0
   10
3.125000
   20
22.500000
   30
0.000000
   0
VERTEX
   8
0
   10
9.571980
   20
19.700900
   30
0.000000
   0
VERTEX
   8
0
   10
8.500000
   20
24.661500
   30
0.000000
   0
SEQEND
   8
0
   0
POLYLINE
   8
0
   66
1
   10
0.000000
   20
0.000000
   30
0.000000
   70
1
   0
VERTEX
   8
0
   10
32.651300
   20
19.438700
   30
0.000000
   0
VERTEX
   8
0
   10
33.689300
   20
13.474900
   30
0.000000
   0
VERTEX
   8
0
   10
40.945100
   20
17.810100
   30
0.000000
   0
SEQEND
   8
0
   0
POLYLINE
   8
0
   66
1
   10
0.000000
   20
0.000000
   30
0.000000
   70
1
   0
VERTEX
   8
0
   10
19.246300
   20
21.018600
   30
0.000000
   0
VERTEX
   8
0
   10
23.567400
   20
17.409900
   30
0.000000
   0
VERTEX
   8
0
   10
24.696700
   20
22.175600
   30
0.000000
   0
SEQEND
   8
0
   0
POLYLINE
   8
0
   66
1
   10
0.000000
   20
0.000000
   30
0.000000
   70
1
   0
VERTEX
   8
0
   10
23.090900
   20
8.127520
   30
0.000000
   0
VERTEX
   8
0
   10
23.567400
   20
17.409900
   30
0.000000
   0
VERTEX
   8
0
   10
19.079300
   20
15.449300
   30
0.000000
   0
SEQEND
   8
0
   0
POLYLINE
   8
0
   66
1
   10
0.000000
   20
0.000000
   30
0.000000
   70
1
   0
VERTEX
   8
0
   10
36.240100
   20
25.118000
   30
0.000000
   0
VERTEX
   8
0
   10
37.500000
   20
30.000000
   30
0.000000
   0
VERTEX
   8
0
   10
31.250000
   20
25.839600
   30
0.000000
   0
SEQEND
   8
0
   0
POLYLINE
   8
0
   66
1
   10
0.000000
   20
0.000000
   30
0.000000
   70
1
   0
VERTEX
   8
0
   10
40.945100
   20
17.810100
   30
0.000000
   0
VERTEX
   8
0
   10
33.689300
   20
13.474900
   30
0.000000
   0
VERTEX
   8
0
   10
38.922500
   20
12.955800
   30
0.000000
   0
SEQEND
   8
0
   0
POLYLINE
   8
0
   66
1
   10
0.000000
   20
0.000000
   30
0.000000
   70
1
   0
VERTEX
   8
0
   10
41.619800
   20
8.441350
   30
0.000000
   0
VERTEX
   8
0
   10
34.375000
   20
6.392560
   30
0.000000
   0
VERTEX
   8
0
   10
37.500000
   20
0.000000
   30
0.000000
   0
SEQEND
   8
0
   0
POLYLINE
   8
0
   66
1
   10
0.000000
   20
0.000000
   30
0.000000
   70
1
   0
VERTEX
   8
0
   10
43.507600
   20
25.846000
   30
0.000000
   0
VERTEX
   8
0
   10
37.500000
   20
30.000000
   30
0.000000
   0
VERTEX
   8
0
   10
36.240100
   20
25.118000
   30
0.000000
   0
SEQEND
   8
0
   0
POLYLINE
   8
0
   66
1
   10
0.000000
   20
0.000000
   30
0.000000
   70
1
   0
VERTEX
   8
0
   10
32.651300
   20
19.438700
   30
0.000000
   0
VERTEX
   8
0
   10
36.240100
   20
25.118000
   30
0.000000
   0
VERTEX
   8
0
   10
31.250000
   20
25.839600
   30
0.000000
   0
SEQEND
   8
0
   0
POLYLINE
   8
0
   66
1
   10
0.000000
   20
0.000000
   30
0.000000
   70
1
   0
VERTEX
   8
0
   10
43.507600
   20
25.846000
   30
0.000000
   0
VERTEX
   8
0
   10
40.945100
   20
17.810100
   30
0.000000
   0
VERTEX
   8
0
   10
46.200300
   20
18.750000
   30
0.000000
   0
SEQEND
   8
0
   0
POLYLINE
   8
0
   66
1
   10
0.000000
   20
0.000000
   30
0.000000
   70
1
   0
VERTEX
   8
0
   10
43.507600
   20
25.846000
   30
0.000000
   0
VERTEX
   8
0
   10
50.000000
   20
30.000000
   30
0.000000
   0
VERTEX
   8
0
   10
37.500000
   20
30.000000
   30
0.000000
   0
SEQEND
   8
0
   0
POLYLINE
   8
0
   66
1
   10
0.000000
   20
0.000000
   30
0.000000
   70
1
   0
VERTEX
   8
0
   10
18.750000
   20
27.269800
   30
0.000000
   0
VERTEX
   8
0
   10
19.246300
   20
21.018600
   30
0.000000
   0
VERTEX
   8
0
   10
24.696700
   20
22.175600
   30
0.000000
   0
SEQEND
   8
0
   0
POLYLINE
   8
0
   66
1
   10
0.000000
   20
0.000000
   30
0.000000
   70
1
   0
VERTEX
   8
0
   10
13.924100
   20
17.090200
   30
0.000000
   0
VERTEX
   8
0
   10
19.246300
   20
21.018600
   30
0.000000
   0
VERTEX
   8
0
   10
13.875000
   20
22.500000
   30
0.000000
   0
SEQEND
   8
0
   0
POLYLINE
   8
0
   66
1
   10
0.000000
   20
0.000000
   30
0.000000
   70
1
   0
VERTEX
   8
0
   10
6.250000
   20
30.000000
   30
0.000000
   0
VERTEX
   8
0
   10
3.125000
   20
22.500000
   30
0.000000
   0
VERTEX
   8
0
   10
8.500000
   20
24.661500
   30
0.000000
   0
SEQEND
   8
0
   0
POLYLINE
   8
0
   66
1
   10
0.000000
   20
0.000000
   30
0.000000
   70
1
   0
VERTEX
   8
0
   10
15.322700
   20
8.631190
   30
0.000000
   0
VERTEX
   8
0
   10
23.090900
   20
8.127520
   30
0.000000
   0
VERTEX
   8
0
   10
19.079300
   20
15.449300
   30
0.000000
   0
SEQEND
   8
0
   0
POLYLINE
   8
0
   66
1
   10
0.000000
   20
0.000000
   30
0.000000
   70
1
   0
VERTEX
   8
0
   10
23.567400
   20
17.409900
   30
0.000000
   0
VERTEX
   8
0
   10
23.090900
   20
8.127520
   30
0.000000
   0
VERTEX
   8
0
   10
27.831200
   20
15.000000
   30
0.000000
   0
SEQEND
   8
0
   0
POLYLINE
   8
0
   66
1
   10
0.000000
   20
0.000000
   30
0.000000
   70
1
   0
VERTEX
   8
0
   10
9.571380
   20
13.877300
   30
0.000000
   0
VERTEX
   8
0
   10
15.322700
   20
8.631190
   30
0.000000
   0
VERTEX
   8
0
   10
13.924100
   20
17.090200
   30
0.000000
   0
SEQEND
   8
0
   0
POLYLINE
   8
0
   66
1
   10
0.000000
   20
0.000000
   30
0.000000
   70
1
   0
VERTEX
   8
0
   10
0.000000
   20
30.000000
   30
0.000000
   0
VERTEX
   8
0
   10
0.000000
   20
15.000000
   30
0.000000
   0
VERTEX
   8
0
   10
3.125000
   20
22.500000
   30
0.000000
   0
SEQEND
   8
0
   0
POLYLINE
   8
0
   66
1
   10
0.000000
   20
0.000000
   30
0.000000
   70
1
   0
VERTEX
   8
0
   10
24.696700
   20
22.175600
   30
0.000000
   0
VERTEX
   8
0
   10
32.651300
   20
19.438700
   30
0.000000
   0
VERTEX
   8
0
   10
31.250000
   20
25.839600
   30
0.000000
   0
SEQEND
   8
0
   0
POLYLINE
   8
0
   66
1
   10
0.000000
   20
0.000000
   30
0.000000
   70
1
   0
VERTEX
   8
0
   10
33.689300
   20
13.474900
   30
0.000000
   0
VERTEX
   8
0
   10
32.651300
   20
19.438700
   30
0.000000
   0
VERTEX
   8
0
   10
27.831200
   20
15.000000
   30
0.000000
   0
SEQEND
   8
0
   0
POLYLINE
   8
0
   66
1
   10
0.000000
   20
0.000000
   30
0.000000
   70
1
   0
VERTEX
   8
0
   10
27.940900
   20
9.853250
   30
0.000000
   0
VERTEX
   8
0
   10
27.831200
   20
15.000000
   30
0.000000
   0
VERTEX
   8
0
   10
23.090900
   20
8.127520
   30
0.000000
   0
SEQEND
   8
0
   0
POLYLINE
   8
0
   66
1
   10
0.000000
   20
0.000000
   30
0.000000
   70
1
   0
VERTEX
   8
0
   10
33.689300
   20
13.474900
   30
0.000000
   0
VERTEX
   8
0
   10
27.831200
   20
15.000000
   30
0.000000
   0
VERTEX
   8
0
   10
27.940900
   20
9.853250
   30
0.000000
   0
SEQEND
   8
0
   0
POLYLINE
   8
0
   66
1
   10
0.000000
   20
0.000000
   30
0.000000
   70
1
   0
VERTEX
   8
0
   10
40.945100
   20
17.810100
   30
0.000000
   0
VERTEX
   8
0
   10
43.507600
   20
25.846000
   30
0.000000
   0
VERTEX
   8
0
   10
36.240100
   20
25.118000
   30
0.000000
   0
SEQEND
   8
0
   0
POLYLINE
   8
0
   66
1
   10
0.000000
   20
0.000000
   30
0.000000
   70
1
   0
VERTEX
   8
0
   10
28.125000
   20
4.432790
   30
0.000000
   0
VERTEX
   8
0
   10
34.375000
   20
6.392560
   30
0.000000
   0
VERTEX
   8
0
   10
27.940900
   20
9.853250
   30
0.000000
   0
SEQEND
   8
0
   0
POLYLINE
   8
0
   66
1
   10
0.000000
   20
0.000000
   30
0.000000
   70
1
   0
VERTEX
   8
0
   10
50.000000
   20
30.000000
   30
0.000000
   0
VERTEX
   8
0
   10
43.507600
   20
25.846000
   30
0.000000
   0
VERTEX
   8
0
   10
50.000000
   20
22.500000
   30
0.000000
   0
SEQEND
   8
0
   0
POLYLINE
   8
0
   66
1
   10
0.000000
   20
0.000000
   30
0.000000
   70
1
   0
VERTEX
   8
0
   10
50.000000
   20
15.000000
   30
0.000000
   0
VERTEX
   8
0
   10
50.000000
   20
22.500000
   30
0.000000
   0
VERTEX
   8
0
   10
46.200300
   20
18.750000
   30
0.000000
   0
SEQEND
   8
0
   0
POLYLINE
   8
0
   66
1
   10
0.000000
   20
0.000000
   30
0.000000
   70
1
   0
VERTEX
   8
0
   10
43.507600
   20
25.846000
   30
0.000000
   0
VERTEX
   8
0
   10
46.200300
   20
18.750000
   30
0.000000
   0
VERTEX
   8
0
   10
50.000000
   20
22.500000
   30
0.000000
   0
SEQEND
   8
0
   0
POLYLINE
   8
0
   66
1
   10
0.000000
   20
0.000000
   30
0.000000
   70
1
   0
VERTEX
   8
0
   10
13.875000
   20
22.500000
   30
0.000000
   0
VERTEX
   8
0
   10
8.500000
   20
24.661500
   30
0.000000
   0
VERTEX
   8
0
   10
9.571980
   20
19.700900
   30
0.000000
   0
SEQEND
   8
0
   0
POLYLINE
   8
0
   66
1
   10
0.000000
   20
0.000000
   30
0.000000
   70
1
   0
VERTEX
   8
0
   10
15.322700
   20
8.631190
   30
0.000000
   0
VERTEX
   8
0
   10
7.908480
   20
6.278710
   30
0.000000
   0
VERTEX
   8
0
   10
12.500000
   20
0.000000
   30
0.000000
   0
SEQEND
   8
0
   0
POLYLINE
   8
0
   66
1
   10
0.000000
   20
0.000000
   30
0.000000
   70
1
   0
VERTEX
   8
0
   10
5.117640
   20
17.268700
   30
0.000000
   0
VERTEX
   8
0
   10
4.587010
   20
10.986800
   30
0.000000
   0
VERTEX
   8
0
   10
9.571380
   20
13.877300
   30
0.000000
   0
SEQEND
   8
0
   0
POLYLINE
   8
0
   66
1
   10
0.000000
   20
0.000000
   30
0.000000
   70
1
   0
VERTEX
   8
0
   10
9.571380
   20
13.877300
   30
0.000000
   0
VERTEX
   8
0
   10
13.924100
   20
17.090200
   30
0.000000
   0
VERTEX
   8
0
   10
9.571980
   20
19.700900
   30
0.000000
   0
SEQEND
   8
0
   0
POLYLINE
   8
0
   66
1
   10
0.000000
   20
0.000000
   30
0.000000
   70
1
   0
VERTEX
   8
0
   10
4.587010
   20
10.986800
   30
0.000000
   0
VERTEX
   8
0
   10
7.908480
   20
6.278710
   30
0.000000
   0
VERTEX
   8
0
   10
9.571380
   20
13.877300
   30
0.000000
   0
SEQEND
   8
0
   0
POLYLINE
   8
0
   66
1
   10
0.000000
   20
0.000000
   30
0.000000
   70
1
   0
VERTEX
   8
0
   10
15.322700
   20
8.631190
   30
0.000000
   0
VERTEX
   8
0
   10
18.847800
   20
2.842860
   30
0.000000
   0
VERTEX
   8
0
   10
23.090900
   20
8.127520
   30
0.000000
   0
SEQEND
   8
0
   0
POLYLINE
   8
0
   66
1
   10
0.000000
   20
0.000000
   30
0.000000
   70
1
   0
VERTEX
   8
0
   10
37.500000
   20
0.000000
   30
0.000000
   0
VERTEX
   8
0
   10
34.375000
   20
6.392560
   30
0.000000
   0
VERTEX
   8
0
   10
31.250000
   20
0.000000
   30
0.000000
   0
SEQEND
   8
0
   0
POLYLINE
   8
0
   66
1
   10
0.000000
   20
0.000000
   30
0.000000
   70
1
   0
VERTEX
   8
0
   10
9.571980
   20
19.700900
   30
0.000000
   0
VERTEX
   8
0
   10
3.125000
   20
22.500000
   30
0.000000
   0
VERTEX
   8
0
   10
5.117640
   20
17.268700
   30
0.000000
   0
SEQEND
   8
0
   0
POLYLINE
   8
0
   66
1
   10
0.000000
   20
0.000000
   30
0.000000
   70
1
   0
VERTEX
   8
0
   10
41.619800
   20
8.441350
   30
0.000000
   0
VERTEX
   8
0
   10
38.922500
   20
12.955800
   30
0.000000
   0
VERTEX
   8
0
   10
34.375000
   20
6.392560
   30
0.000000
   0
SEQEND
   8
0
   0
POLYLINE
   8
0
   66
1
   10
0.000000
   20
0.000000
   30
0.000000
   70
1
   0
VERTEX
   8
0
   10
45.467500
   20
4.922890
   30
0.000000
   0
VERTEX
   8
0
   10
50.000000
   20
0.000000
   30
0.000000
   0
VERTEX
   8
0
   10
50.000000
   20
7.500000
   30
0.000000
   0
SEQEND
   8
0
   0
POLYLINE
   8
0
   66
1
   10
0.000000
   20
0.000000
   30
0.000000
   70
1
   0
VERTEX
   8
0
   10
46.200300
   20
18.750000
   30
0.000000
   0
VERTEX
   8
0
   10
40.945100
   20
17.810100
   30
0.000000
   0
VERTEX
   8
0
   10
46.178300
   20
11.250000
   30
0.000000
   0
SEQEND
   8
0
   0
POLYLINE
   8
0
   66
1
   10
0.000000
   20
0.000000
   30
0.000000
   70
1
   0
VERTEX
   8
0
   10
7.908480
   20
6.278710
   30
0.000000
   0
VERTEX
   8
0
   10
15.322700
   20
8.631190
   30
0.000000
   0
VERTEX
   8
0
   10
9.571380
   20
13.877300
   30
0.000000
   0
SEQEND
   8
0
   0
POLYLINE
   8
0
   66
1
   10
0.000000
   20
0.000000
   30
0.000000
   70
1
   0
VERTEX
   8
0
   10
23.090900
   20
8.127520
   30
0.000000
   0
VERTEX
   8
0
   10
18.847800
   20
2.842860
   30
0.000000
   0
VERTEX
   8
0
   10
25.000000
   20
0.000000
   30
0.000000
   0
SEQEND
   8
0
   0
POLYLINE
   8
0
   66
1
   10
0.000000
   20
0.000000
   30
0.000000
   70
1
   0
VERTEX
   8
0
   10
4.587010
   20
10.986800
   30
0.000000
   0
VERTEX
   8
0
   10
0.000000
   20
7.500000
   30
0.000000
   0
VERTEX
   8
0
   10
7.908480
   20
6.278710
   30
0.000000
   0
SEQEND
   8
0
   0
POLYLINE
   8
0
   66
1
   10
0.000000
   20
0.000000
   30
0.000000
   70
1
   0
VERTEX
   8
0
   10
6.250000
   20
0.000000
   30
0.000000
   0
VERTEX
   8
0
   10
12.500000
   20
0.000000
   30
0.000000
   0
VERTEX
   8
0
   10
7.908480
   20
6.278710
   30
0.000000
   0
SEQEND
   8
0
   0
POLYLINE
   8
0
   66
1
   10
0.000000
   20
0.000000
   30
0.000000
   70
1
   0
VERTEX
   8
0
   10
15.322700
   20
8.631190
   30
0.000000
   0
VERTEX
   8
0
   10
12.500000
   20
0.000000
   30
0.000000
   0
VERTEX
   8
0
   10
18.847800
   20
2.842860
   30
0.000000
   0
SEQEND
   8
0
   0
POLYLINE
   8
0
   66
1
   10
0.000000
   20
0.000000
   30
0.000000
   70
1
   0
VERTEX
   8
0
   10
12.500000
   20
0.000000
   30
0.000000
   0
VERTEX
   8
0
   10
25.000000
   20
0.000000
   30
0.000000
   0
VERTEX
   8
0
   10
18.847800
   20
2.842860
   30
0.000000
   0
SEQEND
   8
0
   0
POLYLINE
   8
0
   66
1
   10
0.000000
   20
0.000000
   30
0.000000
   70
1
   0
VERTEX
   8
0
   10
4.587010
   20
10.986800
   30
0.000000
   0
VERTEX
   8
0
   10
5.117640
   20
17.268700
   30
0.000000
   0
VERTEX
   8
0
   10
0.000000
   20
15.000000
   30
0.000000
   0
SEQEND
   8
0
   0
POLYLINE
   8
0
   66
1
   10
0.000000
   20
0.000000
   30
0.000000
   70
1
   0
VERTEX
   8
0
   10
6.250000
   20
0.000000
   30
0.000000
   0
VERTEX
   8
0
   10
0.000000
   20
7.500000
   30
0.000000
   0
VERTEX
   8
0
   10
0.000000
   20
0.000000
   30
0.000000
   0
SEQEND
   8
0
   0
POLYLINE
   8
0
   66
1
   10
0.000000
   20
0.000000
   30
0.000000
   70
1
   0
VERTEX
   8
0
   10
0.000000
   20
7.500000
   30
0.000000
   0
VERTEX
   8
0
   10
6.250000
   20
0.000000
   30
0.000000
   0
VERTEX
   8
0
   10
7.908480
   20
6.278710
   30
0.000000
   0
SEQEND
   8
0
   0
POLYLINE
   8
0
   66
1
   10
0.000000
   20
0.000000
   30
0.000000
   70
1
   0
VERTEX
   8
0
   10
0.000000
   20
15.000000
   30
0.000000
   0
VERTEX
   8
0
   10
0.000000
   20
7.500000
   30
0.000000
   0
VERTEX
   8
0
   10
4.587010
   20
10.986800
   30
0.000000
   0
SEQEND
   8
0
   0
POLYLINE
   8
0
   66
1
   10
0.000000
   20
0.000000
   30
0.000000
   70
1
   0
VERTEX
   8
0
   10
9.571380
   20
13.877300
   30
0.000000
   0
VERTEX
   8
0
   10
9.571980
   20
19.700900
   30
0.000000
   0
VERTEX
   8
0
   10
5.117640
   20
17.268700
   30
0.000000
   0
SEQEND
   8
0
   0
POLYLINE
   8
0
   66
1
   10
0.000000
   20
0.000000
   30
0.000000
   70
1
   0
VERTEX
   8
0
   10
13.875000
   20
22.500000
   30
0.000000
   0
VERTEX
   8
0
   10
9.571980
   20
19.700900
   30
0.000000
   0
VERTEX
   8
0
   10
13.924100
   20
17.090200
   30
0.000000
   0
SEQEND
   8
0
   0
POLYLINE
   8
0
   66
1
   10
0.000000
   20
0.000000
   30
0.000000
   70
1
   0
VERTEX
   8
0
   10
28.125000
   20
4.432790
   30
0.000000
   0
VERTEX
   8
0
   10
23.090900
   20
8.127520
   30
0.000000
   0
VERTEX
   8
0
   10
25.000000
   20
0.000000
   30
0.000000
   0
SEQEND
   8
0
   0
POLYLINE
   8
0
   66
1
   10
0.000000
   20
0.000000
   30
0.000000
   70
1
   0
VERTEX
   8
0
   10
23.090900
   20
8.127520
   30
0.000000
   0
VERTEX
   8
0
   10
28.125000
   20
4.432790
   30
0.000000
   0
VERTEX
   8
0
   10
27.940900
   20
9.853250
   30
0.000000
   0
SEQEND
   8
0
   0
POLYLINE
   8
0
   66
1
   10
0.000000
   20
0.000000
   30
0.000000
   70
1
   0
VERTEX
   8
0
   10
27.940900
   20
9.853250
   30
0.000000
   0
VERTEX
   8
0
   10
34.375000
   20
6.392560
   30
0.000000
   0
VERTEX
   8
0
   10
33.689300
   20
13.474900
   30
0.000000
   0
SEQEND
   8
0
   0
POLYLINE
   8
0
   66
1
   10
0.000000
   20
0.000000
   30
0.000000
   70
1
   0
VERTEX
   8
0
   10
25.000000
   20
0.000000
   30
0.000000
   0
VERTEX
   8
0
   10
31.250000
   20
0.000000
   30
0.000000
   0
VERTEX
   8
0
   10
28.125000
   20
4.432790
   30
0.000000
   0
SEQEND
   8
0
   0
POLYLINE
   8
0
   66
1
   10
0.000000
   20
0.000000
   30
0.000000
   70
1
   0
VERTEX
   8
0
   10
34.375000
   20
6.392560
   30
0.000000
   0
VERTEX
   8
0
   10
28.125000
   20
4.432790
   30
0.000000
   0
VERTEX
   8
0
   10
31.250000
   20
0.000000
   30
0.000000
   0
SEQEND
   8
0
   0
POLYLINE
   8
0
   66
1
   10
0.000000
   20
0.000000
   30
0.000000
   70
1
   0
VERTEX
   8
0
   10
34.375000
   20
6.392560
   30
0.000000
   0
VERTEX
   8
0
   10
38.922500
   20
12.955800
   30
0.000000
   0
VERTEX
   8
0
   10
33.689300
   20
13.474900
   30
0.000000
   0
SEQEND
   8
0
   0
POLYLINE
   8
0
   66
1
   10
0.000000
   20
0.000000
   30
0.000000
   70
1
   0
VERTEX
   8
0
   10
41.619800
   20
8.441350
   30
0.000000
   0
VERTEX
   8
0
   10
46.178300
   20
11.250000
   30
0.000000
   0
VERTEX
   8
0
   10
38.922500
   20
12.955800
   30
0.000000
   0
SEQEND
   8
0
   0
POLYLINE
   8
0
   66
1
   10
0.000000
   20
0.000000
   30
0.000000
   70
1
   0
VERTEX
   8
0
   10
46.178300
   20
11.250000
   30
0.000000
   0
VERTEX
   8
0
   10
50.000000
   20
15.000000
   30
0.000000
   0
VERTEX
   8
0
   10
46.200300
   20
18.750000
   30
0.000000
   0
SEQEND
   8
0
   0
POLYLINE
   8
0
   66
1
   10
0.000000
   20
0.000000
   30
0.000000
   70
1
   0
VERTEX
   8
0
   10
41.619800
   20
8.441350
   30
0.000000
   0
VERTEX
   8
0
   10
37.500000
   20
0.000000
   30
0.000000
   0
VERTEX
   8
0
   10
43.750000
   20
0.000000
   30
0.000000
   0
SEQEND
   8
0
   0
POLYLINE
   8
0
   66
1
   10
0.000000
   20
0.000000
   30
0.000000
   70
1
   0
VERTEX
   8
0
   10
50.000000
   20
7.500000
   30
0.000000
   0
VERTEX
   8
0
   10
46.178300
   20
11.250000
   30
0.000000
   0
VERTEX
   8
0
   10
45.467500
   20
4.922890
   30
0.000000
   0
SEQEND
   8
0
   0
POLYLINE
   8
0
   66
1
   10
0.000000
   20
0.000000
   30
0.000000
   70
1
   0
VERTEX
   8
0
   10
45.467500
   20
4.922890
   30
0.000000
   0
VERTEX
   8
0
   10
46.178300
   20
11.250000
   30
0.000000
   0
VERTEX
   8
0
   10
41.619800
   20
8.441350
   30
0.000000
   0
SEQEND
   8
0
   0
POLYLINE
   8
0
   66
1
   10
0.000000
   20
0.000000
   30
0.000000
   70
1
   0
VERTEX
   8
0
   10
41.619800
   20
8.441350
   30
0.000000
   0
VERTEX
   8
0
   10
43.750000
   20
0.000000
   30
0.000000
   0
VERTEX
   8
0
   10
45.467500
   20
4.922890
   30
0.000000
   0
SEQEND
   8
0
   0
POLYLINE
   8
0
   66
1
   10
0.000000
   20
0.000000
   30
0.000000
   70
1
   0
VERTEX
   8
0
   10
50.000000
   20
0.000000
   30
0.000000
   0
VERTEX
   8
0
   10
45.467500
   20
4.922890
   30
0.000000
   0
VERTEX
   8
0
   10
43.750000
   20
0.000000
   30
0.000000
   0
SEQEND
   8
0
  0
ENDSEC
  0
EOF
